<svg width="406" height="257" viewBox="0 0 406 257" fill="none" xmlns="http://www.w3.org/2000/svg">
<g clip-path="url(#clip0)">
<rect width="482" height="329" transform="translate(-47)" fill="white"/>
<path d="M-47 185L-36.5833 197C-26.1667 209 -5.33334 233 15.5 233C36.3333 233 57.1667 209 78 193.025C98.8333 176.75 110.167 217.25 131 221C151.833 224.75 175.167 205.25 196 209C216.833 212.75 236.167 237.275 257 233C277.833 229.025 313.167 187.025 334 203C355 233 369.667 228.725 390.5 233C411.333 236.975 432.167 233 442.583 221L453 209V329H442.583C432.167 329 411.333 329 390.5 329C369.667 329 348.833 329 328 329C307.167 329 286.333 329 265.5 329C244.667 329 223.833 329 203 329C182.167 329 161.333 329 140.5 329C119.667 329 98.8333 329 78 329C57.1667 329 36.3333 329 15.5 329C-5.33334 329 -26.1667 329 -36.5833 329H-47V185Z" fill="url(#paint0_linear)"/>
</g>
<path d="M213.843 95.725H230.888C237.308 95.7341 243.556 97.4982 248.716 100.758C253.875 104.019 257.675 108.604 259.557 113.841L268.764 139.462C269.095 140.377 269.169 141.346 268.981 142.29C268.793 143.234 268.349 144.127 267.682 144.898C267.016 145.669 266.147 146.295 265.145 146.727C264.144 147.159 263.037 147.384 261.915 147.385H182.757C181.635 147.384 180.529 147.159 179.527 146.727C178.525 146.295 177.656 145.669 176.99 144.898C176.324 144.127 175.879 143.234 175.691 142.29C175.503 141.346 175.578 140.377 175.908 139.462L185.116 113.841C187.001 108.596 190.809 104.005 195.98 100.744C201.151 97.4825 207.413 95.7234 213.843 95.725Z" fill="#A4B1F5"/>
<path d="M261.944 148.22H182.787C181.509 148.223 180.248 147.97 179.105 147.481C177.963 146.993 176.971 146.282 176.209 145.406C175.448 144.531 174.938 143.515 174.721 142.44C174.504 141.366 174.585 140.263 174.959 139.22L184.215 113.599C186.139 108.173 190.062 103.422 195.404 100.051C200.745 96.6803 207.219 94.8704 213.863 94.8902H230.888C237.532 94.8704 244.005 96.6803 249.347 100.051C254.688 103.422 258.612 108.173 260.535 113.599L269.743 139.22C270.116 140.263 270.198 141.366 269.981 142.44C269.764 143.515 269.254 144.531 268.492 145.406C267.731 146.282 266.739 146.993 265.596 147.481C264.454 147.97 263.193 148.223 261.915 148.22H261.944ZM213.843 96.5599C207.618 96.5412 201.552 98.2373 196.547 101.396C191.542 104.555 187.866 109.007 186.065 114.091L176.857 139.713C176.575 140.504 176.513 141.341 176.678 142.156C176.842 142.971 177.228 143.742 177.804 144.408C178.381 145.073 179.131 145.614 179.996 145.987C180.862 146.361 181.817 146.556 182.787 146.558H261.944C262.914 146.556 263.869 146.361 264.735 145.987C265.6 145.614 266.351 145.073 266.927 144.408C267.503 143.742 267.889 142.971 268.053 142.156C268.218 141.341 268.156 140.504 267.874 139.713L258.666 114.091C256.865 109.007 253.189 104.555 248.184 101.396C243.179 98.2373 237.113 96.5412 230.888 96.5599H213.843Z" fill="#7C6BF8"/>
<path d="M217.16 92.8365H227.571V97.9457C227.571 98.4412 227.457 98.9319 227.234 99.3897C227.012 99.8475 226.686 100.264 226.276 100.614C225.865 100.964 225.377 101.242 224.841 101.432C224.304 101.622 223.729 101.719 223.148 101.719H221.573C220.4 101.719 219.275 101.322 218.446 100.614C217.616 99.9063 217.15 98.9465 217.15 97.9457V92.8365H217.16Z" fill="#FFC9B0"/>
<path d="M223.148 102.546H221.583C220.152 102.546 218.78 102.061 217.767 101.199C216.754 100.336 216.184 99.1664 216.182 97.9457V92.8365C216.182 92.6151 216.285 92.4027 216.468 92.2462C216.652 92.0896 216.901 92.0016 217.16 92.0016H227.571C227.83 92.0016 228.079 92.0896 228.263 92.2462C228.446 92.4027 228.549 92.6151 228.549 92.8365V97.9457C228.547 99.1664 227.977 100.336 226.964 101.199C225.951 102.061 224.579 102.546 223.148 102.546V102.546ZM218.139 93.6713V97.9457C218.141 98.7236 218.505 99.4689 219.151 100.018C219.796 100.568 220.671 100.876 221.583 100.876H223.148C224.06 100.876 224.935 100.568 225.58 100.018C226.226 99.4689 226.59 98.7236 226.592 97.9457V93.6713H218.139Z" fill="#7C6BF8"/>
<path d="M186.437 68.2004C181.603 66.6393 181.896 63.4836 181.172 59.443C180.447 55.4395 180 51.403 179.832 47.3545C179.646 42.7546 179.832 38.0294 181.887 33.7634C184.519 28.2785 189.714 24.7388 196.652 25.223C196.446 17.1418 202.131 9.56144 212.199 9.10227C228.334 8.36762 237.639 23.1526 246.651 22.0506C255.663 20.9486 258.079 17.5258 258.079 17.5258C259.594 19.9983 260.216 22.798 259.867 25.5719C259.519 28.3457 258.216 30.9694 256.122 33.1122C256.122 33.1122 263.236 31.3423 264.097 39.4152C264.958 47.4881 259.293 68.9434 259.293 68.9434L252.864 68.0084C250.154 67.5993 246.768 68.167 244.058 68.2422L223.892 68.7765C213.775 69.0186 197.415 71.7401 186.437 68.2004Z" fill="#725858"/>
<path d="M200.976 70.8302C195.673 70.8302 190.458 70.3877 186.084 68.9768C181.397 67.4574 180.967 64.5689 180.468 61.2212C180.39 60.6646 180.302 60.1081 180.204 59.5515C179.474 55.5147 179.024 51.4448 178.853 47.3629C178.677 43.0468 178.795 38.0044 180.986 33.4378C183.775 27.5939 188.98 24.3297 195.37 24.3297H195.673C195.888 16.5574 201.475 8.73495 212.15 8.25074C221.534 7.83332 228.784 12.5001 234.577 16.2485C239.058 19.1454 242.933 21.6415 246.504 21.2074C254.87 20.1889 257.267 17.1084 257.267 17.075C257.356 16.9535 257.48 16.8535 257.628 16.7848C257.775 16.7161 257.941 16.6809 258.109 16.6826C258.278 16.6826 258.445 16.7204 258.593 16.7921C258.74 16.8638 258.864 16.9671 258.95 17.0917C258.999 17.1668 263.901 24.5384 258.207 32.1188C259.422 32.1656 260.599 32.4947 261.612 33.0705C263.569 34.2392 264.792 36.343 265.105 39.3401C265.976 47.4547 260.525 68.2422 260.291 69.1271C260.234 69.3358 260.086 69.5181 259.877 69.6362C259.667 69.7543 259.413 69.7992 259.165 69.7616L252.708 68.8433C250.797 68.6623 248.868 68.6847 246.964 68.91C245.986 68.9935 245.007 69.0687 244.029 69.0937L223.863 69.628C221.348 69.6948 218.393 69.9202 215.272 70.154C210.859 70.4545 205.879 70.8302 200.976 70.8302ZM186.779 67.4157C194.783 70.0037 206.064 69.1438 215.154 68.4509C218.305 68.2088 221.289 67.9834 223.863 67.9166L244.029 67.3823C244.88 67.3823 245.809 67.2821 246.788 67.207C248.864 66.9614 250.969 66.9446 253.05 67.1569C253.393 67.1569 254.508 67.3656 258.578 67.9917C259.557 64.0847 263.901 46.4947 263.158 39.4987C262.893 36.9942 262.013 35.3245 260.525 34.4897C259.921 34.1703 259.248 33.957 258.546 33.8624C257.843 33.7678 257.126 33.7937 256.436 33.9387C256.235 33.9877 256.022 33.9809 255.827 33.9193C255.631 33.8578 255.464 33.7446 255.349 33.5964C255.235 33.4482 255.179 33.2728 255.19 33.0957C255.201 32.9185 255.277 32.7489 255.408 32.6113C257.242 30.7638 258.441 28.5196 258.873 26.1268C259.304 23.7341 258.952 21.286 257.854 19.0535C256.357 20.2557 253.099 22.1341 246.807 22.9021C242.424 23.4281 238.246 20.7399 233.412 17.626C227.542 13.8442 220.937 9.56979 212.278 9.96216C202.434 10.4046 197.464 17.985 197.65 25.2313C197.652 25.3486 197.625 25.465 197.571 25.5729C197.517 25.6808 197.437 25.7777 197.337 25.8575C197.237 25.9381 197.118 25.9999 196.988 26.0387C196.858 26.0776 196.72 26.0926 196.583 26.0829C190.478 25.6488 185.458 28.5874 182.816 34.1057C180.771 38.3884 180.664 43.2054 180.859 47.3462C181.024 51.3609 181.465 55.3639 182.18 59.3345C182.288 59.9272 182.376 60.4865 182.454 61.0041C182.924 64.1598 183.237 66.2469 186.828 67.4073L186.779 67.4157Z" fill="#7C6BF8"/>
<path d="M192.62 77.2C198.203 77.2 202.728 73.8734 202.728 69.7699C202.728 65.6664 198.203 62.3399 192.62 62.3399C187.038 62.3399 182.513 65.6664 182.513 69.7699C182.513 73.8734 187.038 77.2 192.62 77.2Z" fill="#FFC9B0"/>
<path d="M192.62 78.0265C186.505 78.0265 181.534 74.3198 181.534 69.7616C181.534 65.2034 186.505 61.4883 192.62 61.4883C198.736 61.4883 203.716 65.2034 203.716 69.7616C203.716 74.3198 198.736 78.0265 192.62 78.0265ZM192.62 63.158C187.591 63.158 183.491 66.1217 183.491 69.7616C183.491 73.4015 187.591 76.3568 192.62 76.3568C197.65 76.3568 201.759 73.4015 201.759 69.7616C201.759 66.1217 197.659 63.1663 192.62 63.1663V63.158Z" fill="#7C6BF8"/>
<path d="M251.573 77.2C257.155 77.2 261.68 73.8734 261.68 69.7699C261.68 65.6664 257.155 62.3399 251.573 62.3399C245.99 62.3399 241.465 65.6664 241.465 69.7699C241.465 73.8734 245.99 77.2 251.573 77.2Z" fill="#FFC9B0"/>
<path d="M251.573 78.0265C245.457 78.0265 240.477 74.3198 240.477 69.7616C240.477 65.2034 245.457 61.4883 251.573 61.4883C257.688 61.4883 262.659 65.2034 262.659 69.7616C262.659 74.3198 257.688 78.0265 251.573 78.0265ZM251.573 63.158C246.534 63.158 242.434 66.1217 242.434 69.7616C242.434 73.4015 246.534 76.3568 251.573 76.3568C256.612 76.3568 260.702 73.4015 260.702 69.7616C260.702 66.1217 256.621 63.1663 251.573 63.1663V63.158Z" fill="#7C6BF8"/>
<path d="M222.375 93.9969C214.292 93.9991 206.538 91.2631 200.817 86.39C195.096 81.517 191.877 74.9055 191.867 68.0084V49.091C193.648 51.5955 199.567 50.5937 208.246 37.8958C240.731 51.9378 252.864 43.8899 252.864 43.8899V68.0084C252.854 74.9026 249.637 81.5115 243.921 86.3841C238.205 91.2567 230.456 93.9947 222.375 93.9969V93.9969Z" fill="#FFC9B0"/>
<path d="M222.375 94.8317C214.035 94.8273 206.036 92.0012 200.134 86.973C194.231 81.9448 190.907 75.1249 190.889 68.0084V49.091C190.886 48.9074 190.955 48.7283 191.085 48.5815C191.214 48.4346 191.396 48.3283 191.603 48.2788C191.811 48.2294 192.031 48.2396 192.231 48.308C192.431 48.3763 192.599 48.4989 192.708 48.6569C192.858 48.8793 193.078 49.0618 193.342 49.1842C193.606 49.3065 193.905 49.3639 194.205 49.3498V49.3498C195.399 49.3498 199.881 48.4565 207.385 37.4701C207.506 37.2807 207.708 37.1384 207.948 37.073C208.189 37.0077 208.45 37.0243 208.677 37.1194C240.066 50.6855 252.14 43.2722 252.258 43.197C252.403 43.1016 252.577 43.0429 252.759 43.0277C252.942 43.0124 253.126 43.0413 253.29 43.1109C253.454 43.1805 253.592 43.2882 253.688 43.4215C253.784 43.5548 253.834 43.7084 253.833 43.8649V68.0084C253.815 75.1205 250.494 81.9367 244.598 86.9642C238.702 91.9917 230.711 94.8207 222.375 94.8317V94.8317ZM192.855 50.8191V68.0084C192.855 74.6884 195.965 81.0948 201.501 85.8183C207.038 90.5418 214.546 93.1955 222.375 93.1955C230.205 93.1955 237.713 90.5418 243.249 85.8183C248.785 81.0948 251.895 74.6884 251.895 68.0084V45.3259C247.669 46.9956 234.684 50.0678 208.638 38.9895C203.237 46.7284 198.139 50.9944 194.254 51.0195C193.773 51.0395 193.293 50.9711 192.845 50.8191H192.855Z" fill="#7C6BF8"/>
<path d="M241.945 141.24C241.685 141.24 241.436 141.152 241.253 140.996C241.069 140.839 240.966 140.627 240.966 140.406V109.867C240.966 109.646 241.069 109.433 241.253 109.277C241.436 109.12 241.685 109.032 241.945 109.032C242.204 109.032 242.453 109.12 242.636 109.277C242.82 109.433 242.923 109.646 242.923 109.867V140.406C242.923 140.627 242.82 140.839 242.636 140.996C242.453 141.152 242.204 141.24 241.945 141.24V141.24Z" fill="#7C6BF8"/>
<path d="M202.806 141.24C202.547 141.24 202.298 141.152 202.114 140.996C201.931 140.839 201.828 140.627 201.828 140.406V109.867C201.828 109.646 201.931 109.433 202.114 109.277C202.298 109.12 202.547 109.032 202.806 109.032C203.066 109.032 203.315 109.12 203.498 109.277C203.682 109.433 203.785 109.646 203.785 109.867V140.406C203.785 140.627 203.682 140.839 203.498 140.996C203.315 141.152 203.066 141.24 202.806 141.24V141.24Z" fill="#7C6BF8"/>
<path d="M222.297 72.7586C221.271 72.7524 220.247 72.6798 219.234 72.5416C218.975 72.5028 218.744 72.3777 218.593 72.1938C218.441 72.0098 218.382 71.7821 218.427 71.5606C218.473 71.3392 218.619 71.1423 218.835 71.0131C219.051 70.884 219.317 70.8332 219.577 70.8719C221.117 71.0786 222.685 71.0786 224.225 70.8719C224.42 70.1038 223.246 67.2404 221.583 64.5438C221.525 64.4443 221.492 64.336 221.484 64.2253C221.476 64.1145 221.494 64.0036 221.537 63.8988C221.58 63.7941 221.647 63.6978 221.734 63.6155C221.821 63.5331 221.927 63.4664 222.045 63.4192C222.162 63.3721 222.29 63.3454 222.42 63.3408C222.55 63.3362 222.679 63.3537 222.801 63.3923C222.923 63.431 223.035 63.4899 223.13 63.5658C223.225 63.6417 223.301 63.7329 223.354 63.8342C224.45 65.6291 226.906 69.987 226.005 71.6984C225.905 71.9029 225.75 72.0847 225.553 72.2295C225.356 72.3744 225.122 72.4783 224.87 72.5332C224.027 72.6985 223.162 72.7742 222.297 72.7586V72.7586Z" fill="#7C6BF8"/>
<path d="M215.526 52.7559H200.575C200.056 52.7559 199.558 52.58 199.191 52.2669C198.825 51.9538 198.618 51.5291 198.618 51.0863C198.618 50.6434 198.825 50.2188 199.191 49.9056C199.558 49.5925 200.056 49.4166 200.575 49.4166H215.536C216.055 49.4166 216.553 49.5925 216.92 49.9056C217.287 50.2188 217.493 50.6434 217.493 51.0863C217.493 51.5291 217.287 51.9538 216.92 52.2669C216.553 52.58 216.055 52.7559 215.536 52.7559H215.526Z" fill="#7C6BF8"/>
<path d="M243.168 52.7559H228.217C227.698 52.7559 227.2 52.58 226.833 52.2669C226.466 51.9538 226.26 51.5291 226.26 51.0863C226.26 50.6434 226.466 50.2188 226.833 49.9056C227.2 49.5925 227.698 49.4166 228.217 49.4166H243.168C243.687 49.4166 244.184 49.5925 244.551 49.9056C244.918 50.2188 245.125 50.6434 245.125 51.0863C245.125 51.5291 244.918 51.9538 244.551 52.2669C244.184 52.58 243.687 52.7559 243.168 52.7559Z" fill="#7C6BF8"/>
<path d="M199.274 57.3308H216.886C217.551 57.3308 218.188 57.556 218.657 57.9568C219.127 58.3576 219.391 58.9012 219.391 59.468V60.8622C219.391 62.773 218.501 64.6055 216.918 65.9567C215.334 67.3078 213.186 68.0669 210.947 68.0669H205.203C202.964 68.0669 200.816 67.3078 199.232 65.9567C197.649 64.6055 196.759 62.773 196.759 60.8622V59.468C196.759 59.1867 196.824 58.9081 196.951 58.6482C197.077 58.3884 197.263 58.1524 197.496 57.9538C197.73 57.7553 198.007 57.598 198.312 57.4911C198.617 57.3842 198.944 57.3297 199.274 57.3308V57.3308Z" fill="white"/>
<path d="M210.957 68.91H205.223C202.725 68.9078 200.33 68.0601 198.563 66.5529C196.797 65.0457 195.803 63.0021 195.8 60.8705V59.468C195.8 58.6812 196.166 57.9266 196.817 57.3694C197.468 56.8123 198.352 56.4982 199.274 56.496H216.886C217.809 56.4982 218.694 56.812 219.346 57.3689C219.999 57.9258 220.367 58.6805 220.37 59.468V60.8705C220.367 63.0006 219.375 65.043 217.61 66.5499C215.846 68.0569 213.453 68.9056 210.957 68.91V68.91ZM199.274 58.1657C199.074 58.1657 198.876 58.1994 198.691 58.265C198.507 58.3305 198.339 58.4266 198.198 58.5476C198.057 58.6687 197.946 58.8123 197.87 58.9703C197.794 59.1282 197.756 59.2974 197.757 59.468V60.8705C197.76 62.5592 198.547 64.1782 199.947 65.3722C201.346 66.5663 203.244 67.2382 205.223 67.2404H210.957C212.937 67.2382 214.835 66.5666 216.236 65.3728C217.637 64.1789 218.427 62.56 218.432 60.8705V59.468C218.432 59.1226 218.271 58.7914 217.985 58.5471C217.699 58.3029 217.311 58.1657 216.906 58.1657H199.274Z" fill="#7C6BF8"/>
<path d="M227.708 57.3308H245.32C245.985 57.3308 246.622 57.556 247.091 57.9568C247.561 58.3576 247.825 58.9012 247.825 59.468V60.8622C247.825 62.773 246.935 64.6055 245.352 65.9567C243.768 67.3078 241.621 68.0669 239.381 68.0669H233.637C231.398 68.0669 229.25 67.3078 227.667 65.9567C226.083 64.6055 225.193 62.773 225.193 60.8622V59.468C225.193 59.1867 225.258 58.9081 225.385 58.6482C225.511 58.3884 225.697 58.1524 225.93 57.9538C226.164 57.7553 226.441 57.598 226.746 57.4911C227.051 57.3842 227.378 57.3297 227.708 57.3308V57.3308Z" fill="white"/>
<path d="M239.391 68.91H233.657C231.157 68.91 228.759 68.0633 226.991 66.5558C225.222 65.0484 224.227 63.0035 224.225 60.8705V59.468C224.227 58.6805 224.595 57.9258 225.248 57.3689C225.9 56.812 226.785 56.4982 227.708 56.496H245.32C246.242 56.4982 247.126 56.8123 247.777 57.3694C248.428 57.9266 248.794 58.6812 248.794 59.468V60.8705C248.791 62.9992 247.8 65.0403 246.038 66.547C244.276 68.0537 241.886 68.9034 239.391 68.91V68.91ZM227.708 58.1657C227.303 58.1657 226.915 58.3029 226.629 58.5471C226.342 58.7914 226.182 59.1226 226.182 59.468V60.8705C226.187 62.56 226.976 64.1789 228.377 65.3728C229.778 66.5666 231.677 67.2382 233.657 67.2404H239.391C241.37 67.2382 243.267 66.5663 244.667 65.3722C246.066 64.1782 246.854 62.5592 246.856 60.8705V59.468C246.858 59.2974 246.819 59.1282 246.744 58.9703C246.668 58.8123 246.557 58.6687 246.416 58.5476C246.275 58.4266 246.107 58.3305 245.922 58.265C245.738 58.1994 245.54 58.1657 245.34 58.1657H227.708Z" fill="#7C6BF8"/>
<path d="M196.779 61.7054H191.065C190.805 61.7054 190.556 61.6174 190.373 61.4609C190.189 61.3043 190.086 61.092 190.086 60.8705C190.086 60.6491 190.189 60.4368 190.373 60.2802C190.556 60.1237 190.805 60.0357 191.065 60.0357H196.749C197.009 60.0357 197.258 60.1237 197.441 60.2802C197.625 60.4368 197.728 60.6491 197.728 60.8705C197.728 61.092 197.625 61.3043 197.441 61.4609C197.258 61.6174 197.009 61.7054 196.749 61.7054H196.779Z" fill="#7C6BF8"/>
<path d="M253.803 61.7054H248.128C247.869 61.7054 247.62 61.6174 247.437 61.4609C247.253 61.3043 247.15 61.092 247.15 60.8705C247.15 60.6491 247.253 60.4368 247.437 60.2802C247.62 60.1237 247.869 60.0357 248.128 60.0357H253.803C254.063 60.0357 254.312 60.1237 254.495 60.2802C254.679 60.4368 254.782 60.6491 254.782 60.8705C254.782 61.092 254.679 61.3043 254.495 61.4609C254.312 61.6174 254.063 61.7054 253.803 61.7054Z" fill="#7C6BF8"/>
<path d="M225.203 61.7054H219.44C219.18 61.7054 218.932 61.6174 218.748 61.4609C218.565 61.3043 218.461 61.092 218.461 60.8705C218.461 60.6491 218.565 60.4368 218.748 60.2802C218.932 60.1237 219.18 60.0357 219.44 60.0357H225.232C225.492 60.0357 225.741 60.1237 225.924 60.2802C226.108 60.4368 226.211 60.6491 226.211 60.8705C226.211 61.092 226.108 61.3043 225.924 61.4609C225.741 61.6174 225.492 61.7054 225.232 61.7054H225.203Z" fill="#7C6BF8"/>
<path d="M221.72 80.8065C218.229 80.8181 214.765 80.2775 211.505 79.2119C211.262 79.1322 211.066 78.9735 210.961 78.7708C210.855 78.5681 210.849 78.3378 210.942 78.1308C211.035 77.9238 211.221 77.7569 211.459 77.6669C211.697 77.5769 211.967 77.5711 212.209 77.6508C218.461 79.5678 225.301 79.5678 231.553 77.6508C231.672 77.6086 231.8 77.5868 231.928 77.5866C232.057 77.5864 232.185 77.6078 232.304 77.6497C232.423 77.6916 232.531 77.753 232.622 77.8305C232.713 77.9081 232.786 78.0002 232.835 78.1016C232.885 78.203 232.91 78.3117 232.91 78.4216C232.911 78.5314 232.885 78.6402 232.836 78.7418C232.787 78.8433 232.715 78.9357 232.624 79.0135C232.534 79.0913 232.426 79.153 232.307 79.1952C228.921 80.2738 225.334 80.8197 221.72 80.8065V80.8065Z" fill="#7C6BF8"/>
<path d="M249.195 134.228C248.966 134.232 248.743 134.167 248.564 134.045C248.385 133.923 248.262 133.751 248.216 133.56C248.191 133.452 248.19 133.342 248.215 133.234C248.239 133.126 248.288 133.024 248.359 132.932C248.43 132.841 248.521 132.762 248.628 132.701C248.734 132.64 248.854 132.597 248.98 132.575L259.801 130.688C260.061 130.644 260.33 130.689 260.551 130.814C260.771 130.94 260.924 131.134 260.976 131.356C261.027 131.577 260.974 131.807 260.827 131.995C260.681 132.183 260.452 132.313 260.193 132.358L249.371 134.236C249.312 134.24 249.253 134.238 249.195 134.228V134.228Z" fill="#7C6BF8"/>
<path d="M195.536 134.228C195.471 134.236 195.405 134.236 195.34 134.228L184.519 132.291C184.39 132.269 184.268 132.226 184.159 132.163C184.05 132.101 183.957 132.021 183.884 131.928C183.811 131.835 183.761 131.731 183.736 131.621C183.71 131.512 183.71 131.399 183.736 131.289C183.762 131.179 183.812 131.075 183.885 130.982C183.958 130.889 184.052 130.81 184.161 130.748C184.27 130.686 184.392 130.643 184.521 130.621C184.649 130.599 184.782 130.599 184.91 130.621L195.732 132.508C195.858 132.53 195.977 132.573 196.084 132.634C196.19 132.695 196.282 132.774 196.353 132.866C196.424 132.957 196.473 133.06 196.497 133.167C196.521 133.275 196.521 133.386 196.495 133.493C196.467 133.694 196.354 133.879 196.177 134.014C196.001 134.149 195.773 134.225 195.536 134.228Z" fill="#7C6BF8"/>
<path d="M194.744 116.73H249.87C251.111 116.73 252.3 117.15 253.177 117.898C254.054 118.647 254.547 119.662 254.547 120.72V148.153H190.086V120.72C190.086 119.665 190.576 118.652 191.449 117.904C192.322 117.156 193.507 116.734 194.744 116.73V116.73Z" fill="#E5E5E5"/>
<path d="M254.547 148.988H190.086C189.827 148.988 189.578 148.9 189.394 148.743C189.211 148.587 189.108 148.374 189.108 148.153V120.72C189.108 119.44 189.704 118.213 190.764 117.308C191.825 116.403 193.263 115.895 194.763 115.895H249.87C251.37 115.895 252.808 116.403 253.869 117.308C254.93 118.213 255.526 119.44 255.526 120.72V148.153C255.526 148.374 255.422 148.587 255.239 148.743C255.055 148.9 254.807 148.988 254.547 148.988ZM191.065 147.318H253.588V120.72C253.586 119.884 253.195 119.082 252.502 118.491C251.809 117.9 250.87 117.567 249.89 117.564H194.744C193.763 117.567 192.824 117.9 192.131 118.491C191.438 119.082 191.048 119.884 191.045 120.72L191.065 147.318Z" fill="#7C6BF8"/>
<path d="M186.936 148.153H257.688C257.688 149.22 257.191 150.244 256.307 150.998C255.422 151.753 254.223 152.177 252.972 152.177H191.652C190.401 152.177 189.201 151.753 188.317 150.998C187.432 150.244 186.936 149.22 186.936 148.153V148.153Z" fill="white"/>
<path d="M252.962 153.028H191.652C190.142 153.026 188.695 152.513 187.628 151.603C186.56 150.692 185.96 149.457 185.957 148.17C185.957 147.948 186.06 147.736 186.244 147.579C186.427 147.423 186.676 147.335 186.936 147.335H257.678C257.938 147.335 258.187 147.423 258.37 147.579C258.554 147.736 258.657 147.948 258.657 148.17C258.654 149.457 258.053 150.692 256.986 151.603C255.918 152.513 254.472 153.026 252.962 153.028ZM188.041 148.988C188.258 149.663 188.728 150.26 189.38 150.685C190.033 151.11 190.831 151.341 191.652 151.342H252.962C253.791 151.35 254.6 151.124 255.263 150.698C255.925 150.272 256.403 149.67 256.621 148.988H188.041Z" fill="#7C6BF8"/>
<path d="M221.583 117.564C221.323 117.564 221.074 117.476 220.891 117.32C220.707 117.163 220.604 116.951 220.604 116.73V101.702C220.604 101.481 220.707 101.269 220.891 101.112C221.074 100.956 221.323 100.868 221.583 100.868C221.842 100.868 222.091 100.956 222.275 101.112C222.458 101.269 222.561 101.481 222.561 101.702V116.73C222.561 116.951 222.458 117.163 222.275 117.32C222.091 117.476 221.842 117.564 221.583 117.564Z" fill="#7C6BF8"/>
<path d="M128.795 128.042H156.192V144.521C156.192 146.556 155.245 148.507 153.559 149.946C151.872 151.385 149.585 152.193 147.2 152.193H137.787C135.403 152.193 133.115 151.385 131.429 149.946C129.743 148.507 128.795 146.556 128.795 144.521V128.042Z" fill="#E5E5E5"/>
<path d="M147.2 153.028H137.787C135.144 153.026 132.609 152.129 130.74 150.534C128.871 148.939 127.82 146.777 127.817 144.521V128.042C127.817 127.82 127.92 127.608 128.104 127.451C128.287 127.295 128.536 127.207 128.795 127.207H156.192C156.452 127.207 156.701 127.295 156.884 127.451C157.068 127.608 157.171 127.82 157.171 128.042V144.521C157.168 146.777 156.117 148.939 154.248 150.534C152.378 152.129 149.844 153.026 147.2 153.028V153.028ZM129.774 128.876V144.521C129.774 146.335 130.618 148.074 132.121 149.356C133.624 150.638 135.662 151.359 137.787 151.359H147.2C149.325 151.356 151.362 150.635 152.864 149.354C154.366 148.072 155.211 146.334 155.214 144.521V128.876H129.774Z" fill="#7C6BF8"/>
<path d="M275.809 152.193H112.191C109.013 152.193 106.438 154.389 106.438 157.098C106.438 159.807 109.013 162.003 112.191 162.003H275.809C278.986 162.003 281.562 159.807 281.562 157.098C281.562 154.389 278.986 152.193 275.809 152.193Z" fill="#725858"/>
<path d="M275.809 162.838H112.191C111.286 162.867 110.383 162.74 109.537 162.465C108.691 162.19 107.918 161.772 107.266 161.236C106.613 160.7 106.094 160.058 105.74 159.347C105.385 158.636 105.203 157.871 105.203 157.098C105.203 156.325 105.385 155.561 105.74 154.85C106.094 154.139 106.613 153.496 107.266 152.96C107.918 152.424 108.691 152.006 109.537 151.731C110.383 151.456 111.286 151.329 112.191 151.359H275.809C276.714 151.329 277.617 151.456 278.463 151.731C279.309 152.006 280.082 152.424 280.734 152.96C281.387 153.496 281.906 154.139 282.26 154.85C282.615 155.561 282.797 156.325 282.797 157.098C282.797 157.871 282.615 158.636 282.26 159.347C281.906 160.058 281.387 160.7 280.734 161.236C280.082 161.772 279.309 162.19 278.463 162.465C277.617 162.74 276.714 162.867 275.809 162.838V162.838ZM112.191 153.028C111.546 153.003 110.903 153.09 110.298 153.283C109.694 153.477 109.142 153.772 108.676 154.153C108.209 154.533 107.838 154.99 107.584 155.497C107.331 156.003 107.2 156.548 107.2 157.098C107.2 157.649 107.331 158.193 107.584 158.7C107.838 159.206 108.209 159.663 108.676 160.043C109.142 160.424 109.694 160.719 110.298 160.913C110.903 161.106 111.546 161.193 112.191 161.168H275.809C276.454 161.193 277.097 161.106 277.702 160.913C278.306 160.719 278.858 160.424 279.324 160.043C279.791 159.663 280.162 159.206 280.416 158.7C280.669 158.193 280.8 157.649 280.8 157.098C280.8 156.548 280.669 156.003 280.416 155.497C280.162 154.99 279.791 154.533 279.324 154.153C278.858 153.772 278.306 153.477 277.702 153.283C277.097 153.09 276.454 153.003 275.809 153.028H112.191Z" fill="#7C6BF8"/>
<path d="M157.797 144.813H156.202C155.943 144.813 155.694 144.726 155.51 144.569C155.327 144.412 155.224 144.2 155.224 143.979V130.73C155.224 130.508 155.327 130.296 155.51 130.139C155.694 129.983 155.943 129.895 156.202 129.895H157.797C159.034 129.767 160.288 129.865 161.477 130.182C162.666 130.498 163.763 131.027 164.695 131.732C165.627 132.437 166.373 133.302 166.884 134.272C167.395 135.241 167.66 136.291 167.66 137.354C167.66 138.417 167.395 139.468 166.884 140.437C166.373 141.406 165.627 142.272 164.695 142.977C163.763 143.682 162.666 144.21 161.477 144.527C160.288 144.843 159.034 144.941 157.797 144.813V144.813ZM157.181 143.144H157.797C158.756 143.237 159.727 143.156 160.646 142.907C161.566 142.658 162.413 142.246 163.133 141.697C163.853 141.149 164.429 140.477 164.823 139.726C165.218 138.975 165.422 138.161 165.422 137.337C165.422 136.514 165.218 135.7 164.823 134.949C164.429 134.198 163.853 133.526 163.133 132.978C162.413 132.429 161.566 132.017 160.646 131.768C159.727 131.519 158.756 131.438 157.797 131.531H157.181V143.144Z" fill="#7C6BF8"/>
<path d="M169.539 54.6343H111.535C110.184 54.6343 109.089 55.5687 109.089 56.7214V97.6869C109.089 98.8396 110.184 99.774 111.535 99.774H169.539C170.889 99.774 171.985 98.8396 171.985 97.6869V56.7214C171.985 55.5687 170.889 54.6343 169.539 54.6343Z" fill="white"/>
<path d="M169.538 100.609H111.526C110.619 100.607 109.75 100.298 109.11 99.75C108.47 99.2023 108.111 98.4604 108.111 97.6869V56.7131C108.111 55.9403 108.471 55.1992 109.111 54.6528C109.751 54.1064 110.62 53.7995 111.526 53.7995H169.538C170.445 53.7995 171.315 54.1062 171.957 54.6523C172.599 55.1985 172.961 55.9396 172.963 56.7131V97.6869C172.963 98.4618 172.602 99.205 171.96 99.753C171.318 100.301 170.447 100.609 169.538 100.609V100.609ZM111.526 55.4858C111.139 55.4858 110.768 55.6169 110.495 55.8502C110.221 56.0834 110.068 56.3998 110.068 56.7297V97.7036C110.068 98.0343 110.221 98.3515 110.494 98.5861C110.767 98.8207 111.138 98.9536 111.526 98.9558H169.538C169.928 98.9558 170.301 98.8239 170.576 98.589C170.852 98.3542 171.006 98.0357 171.006 97.7036V56.7131C170.998 56.3853 170.84 56.0732 170.566 55.8437C170.292 55.6143 169.923 55.4858 169.538 55.4858H111.526Z" fill="#7C6BF8"/>
<path d="M111.526 54.651H169.539C170.187 54.651 170.809 54.8709 171.268 55.2623C171.727 55.6537 171.985 56.1846 171.985 56.7381V60.353H109.089V56.7381C109.089 56.186 109.346 55.6564 109.802 55.2653C110.259 54.8741 110.879 54.6532 111.526 54.651V54.651Z" fill="#68E1FD"/>
<path d="M171.985 61.1711H109.089C108.83 61.1711 108.581 61.0831 108.397 60.9266C108.214 60.77 108.111 60.5577 108.111 60.3362V56.7131C108.111 55.9403 108.471 55.1992 109.111 54.6528C109.751 54.1064 110.62 53.7995 111.526 53.7995H169.538C170.445 53.7995 171.315 54.1062 171.957 54.6523C172.599 55.1985 172.961 55.9396 172.963 56.7131V60.3362C172.963 60.5577 172.86 60.77 172.677 60.9266C172.493 61.0831 172.244 61.1711 171.985 61.1711ZM110.068 59.5014H171.006V56.7131C170.998 56.3853 170.84 56.0732 170.566 55.8437C170.292 55.6143 169.923 55.4858 169.538 55.4858H111.526C111.139 55.4858 110.768 55.6169 110.495 55.8502C110.221 56.0834 110.068 56.3998 110.068 56.7297V59.5014Z" fill="#7C6BF8"/>
<path d="M113.972 58.5998C114.696 58.5998 115.283 58.0989 115.283 57.4811C115.283 56.8633 114.696 56.3624 113.972 56.3624C113.248 56.3624 112.661 56.8633 112.661 57.4811C112.661 58.0989 113.248 58.5998 113.972 58.5998Z" fill="#7C6BF8"/>
<path d="M117.641 58.5998C118.365 58.5998 118.952 58.0989 118.952 57.4811C118.952 56.8633 118.365 56.3624 117.641 56.3624C116.917 56.3624 116.33 56.8633 116.33 57.4811C116.33 58.0989 116.917 58.5998 117.641 58.5998Z" fill="#7C6BF8"/>
<path d="M121.32 58.5998C122.044 58.5998 122.631 58.0989 122.631 57.4811C122.631 56.8633 122.044 56.3624 121.32 56.3624C120.596 56.3624 120.009 56.8633 120.009 57.4811C120.009 58.0989 120.596 58.5998 121.32 58.5998Z" fill="#7C6BF8"/>
<path d="M132.445 76.0646L123.394 79.5876V79.646L132.445 83.1691V87.026L117.993 81.4075V77.8261L132.445 72.1826V76.0646Z" fill="#7C6BF8"/>
<path d="M143.179 66.6142L146.427 67.6077L137.866 89.7142L134.637 88.7207L143.179 66.6142Z" fill="#7C6BF8"/>
<path d="M148.629 83.1691L157.68 79.646V79.5876L148.629 76.0646V72.1826L163.071 77.801V81.3825L148.629 87.001V83.1691Z" fill="#7C6BF8"/>
<defs>
<linearGradient id="paint0_linear" x1="15" y1="277" x2="422" y2="279" gradientUnits="userSpaceOnUse">
<stop stop-color="#B53AE5"/>
<stop offset="1" stop-color="#7C6BF8"/>
</linearGradient>
<clipPath id="clip0">
<rect width="482" height="329" fill="white" transform="translate(-47)"/>
</clipPath>
</defs>
</svg>
