<svg width="1920" height="950" viewBox="0 0 1920 950" fill="none" xmlns="http://www.w3.org/2000/svg">
<g clip-path="url(#clip0)">
<rect width="1920" height="950" fill="white"/>
<g filter="url(#filter0_d)">
<path d="M-113 785L-78.5 793.944C-44 803.563 25 820.438 94 803.056C163 785 232 731 301 685.944C370 641.563 439 604.438 508 650C577 695.563 646 820.437 715 847.944C784 874.437 853 803.562 922 758C991 712.438 1060 695.563 1129 722.056C1198 749.563 1267 820.438 1336 803.056C1405 785 1474 677 1543 658.944C1612 641.563 1681 712.438 1750 766.944C1819 820.438 1888 857.562 1922.5 874.944L1957 893V947H1922.5C1888 947 1819 947 1750 947C1681 947 1612 947 1543 947C1474 947 1405 947 1336 947C1267 947 1198 947 1129 947C1060 947 991 947 922 947C853 947 784 947 715 947C646 947 577 947 508 947C439 947 370 947 301 947C232 947 163 947 94 947C25 947 -44 947 -78.5 947H-113V785Z" fill="url(#paint0_linear)"/>
</g>
<path d="M592.03 315.458C592.03 315.458 622.098 309.114 620.07 333.092H592.03V315.458Z" fill="#F4A28C"/>
<path d="M525.285 271.838L516.202 329.338H567.213L560.259 263.246L525.285 271.838Z" fill="#C9C9C9"/>
<path d="M643.285 86.2281H440.92V265.441H643.285V86.2281Z" fill="#24285B"/>
<path d="M575.688 204.716H512.025V212.515H575.688V204.716Z" fill="#9F5FF3"/>
<path d="M604.053 225.178H540.39V232.977H604.053V225.178Z" fill="#FFD200"/>
<path d="M643.285 250.028H440.92V283.946H643.285V250.028Z" fill="#E6E6E6"/>
<path d="M550.122 185.867H496.697V193.666H550.122V185.867Z" fill="#9F5FF3"/>
<path d="M614.657 185.867H561.232V193.666H614.657V185.867Z" fill="#9F5FF3"/>
<path d="M559.793 164.163H512.025V171.961H559.793V164.163Z" fill="#FFD200"/>
<path d="M619.989 164.163H572.221V171.961H619.989V164.163Z" fill="#FFD200"/>
<path d="M500.833 204.716H476.888V212.515H500.833V204.716Z" fill="#97EBA4"/>
<path d="M524.676 225.178H500.732V232.977H524.676V225.178Z" fill="#97EBA4"/>
<path d="M485.505 185.867H461.56V193.666H485.505V185.867Z" fill="#97EBA4"/>
<path opacity="0.14" d="M467.359 149.147C467.359 149.147 566.22 136.193 544.404 283.973L551.926 320.006L521.068 298.169L523.541 283.999H507.199L467.359 149.147Z" fill="black"/>
<path d="M467.359 107.509C468.916 107.509 470.177 105.864 470.177 103.835C470.177 101.805 468.916 100.16 467.359 100.16C465.803 100.16 464.541 101.805 464.541 103.835C464.541 105.864 465.803 107.509 467.359 107.509Z" fill="#F8E437"/>
<path d="M475.266 107.509C476.823 107.509 478.085 105.864 478.085 103.835C478.085 101.805 476.823 100.16 475.266 100.16C473.71 100.16 472.448 101.805 472.448 103.835C472.448 105.864 473.71 107.509 475.266 107.509Z" fill="#7AFB65"/>
<path d="M485.505 126.57H461.56V134.369H485.505V126.57Z" fill="#97EBA4"/>
<path d="M500.833 146.08H476.888V153.879H500.833V146.08Z" fill="#97EBA4"/>
<path d="M559.793 146.08H512.025V153.879H559.793V146.08Z" fill="#FFD200"/>
<path d="M619.989 146.08H572.221V153.879H619.989V146.08Z" fill="#FFD200"/>
<path d="M500.833 164.163H476.888V171.961H500.833V164.163Z" fill="#97EBA4"/>
<path d="M544.404 126.57H495.075V134.369H544.404V126.57Z" fill="#9F5FF3"/>
<path d="M589.739 126.57H554.724V134.369H589.739V126.57Z" fill="#9F5FF3"/>
<path d="M544.404 275.592C548.558 275.592 551.926 271.201 551.926 265.784C551.926 260.368 548.558 255.976 544.404 255.976C540.25 255.976 536.882 260.368 536.882 265.784C536.882 271.201 540.25 275.592 544.404 275.592Z" fill="#A5A5A5"/>
<path d="M258.121 320.085H156.401V329.338H258.121V320.085Z" fill="#C9C9C9"/>
<path d="M196.951 315.458C196.951 315.458 166.884 309.114 168.911 333.092H196.951V315.458Z" fill="#F4A28C"/>
<path d="M252.87 271.838L243.787 329.338H294.798L287.844 263.246L252.87 271.838Z" fill="#C9C9C9"/>
<path d="M362.395 86.2281H160.031V265.441H362.395V86.2281Z" fill="#24285B"/>
<path d="M294.798 204.716H231.135V212.515H294.798V204.716Z" fill="#9F5FF3"/>
<path d="M362.395 250.028H160.031V283.946H362.395V250.028Z" fill="#E6E6E6"/>
<path d="M269.232 185.867H215.807V193.666H269.232V185.867Z" fill="#9F5FF3"/>
<path d="M278.903 164.163H231.135V171.961H278.903V164.163Z" fill="#FFD200"/>
<path d="M219.943 204.716H195.998V212.515H219.943V204.716Z" fill="#97EBA4"/>
<path d="M243.787 225.178H219.842V232.977H243.787V225.178Z" fill="#97EBA4"/>
<path d="M204.615 185.867H180.671V193.666H204.615V185.867Z" fill="#97EBA4"/>
<path d="M178.096 107.509C179.652 107.509 180.914 105.864 180.914 103.835C180.914 101.805 179.652 100.16 178.096 100.16C176.539 100.16 175.277 101.805 175.277 103.835C175.277 105.864 176.539 107.509 178.096 107.509Z" fill="#FE7A5D"/>
<path d="M186.469 107.509C188.026 107.509 189.287 105.864 189.287 103.835C189.287 101.805 188.026 100.16 186.469 100.16C184.913 100.16 183.651 101.805 183.651 103.835C183.651 105.864 184.913 107.509 186.469 107.509Z" fill="#F8E437"/>
<path d="M194.376 107.509C195.933 107.509 197.195 105.864 197.195 103.835C197.195 101.805 195.933 100.16 194.376 100.16C192.82 100.16 191.558 101.805 191.558 103.835C191.558 105.864 192.82 107.509 194.376 107.509Z" fill="#7AFB65"/>
<path d="M204.615 126.57H180.671V134.369H204.615V126.57Z" fill="#97EBA4"/>
<path d="M219.943 146.08H195.998V153.879H219.943V146.08Z" fill="#97EBA4"/>
<path d="M278.903 146.08H231.135V153.879H278.903V146.08Z" fill="#FFD200"/>
<path d="M219.943 164.163H195.998V171.961H219.943V164.163Z" fill="#97EBA4"/>
<path d="M263.514 126.57H214.185V134.369H263.514V126.57Z" fill="#9F5FF3"/>
<path opacity="0.45" d="M397.512 600.47C578.352 600.47 724.953 575.697 724.953 545.138C724.953 514.579 578.352 489.807 397.512 489.807C216.671 489.807 70.0704 514.579 70.0704 545.138C70.0704 575.697 216.671 600.47 397.512 600.47Z" fill="#E6E6E6"/>
<path d="M347.96 143.252C347.96 143.252 277.382 149.57 271.969 200.671C268.968 229.064 274.929 254.734 280.829 272.05C281.728 274.68 282.144 277.548 282.044 280.426C281.943 283.303 281.329 286.11 280.25 288.623C279.171 291.136 277.658 293.286 275.829 294.902C274.001 296.518 271.908 297.555 269.718 297.931L196.951 311.149V333.224L298.205 329.311C308.477 328.916 318.28 323.618 325.755 314.422C333.229 305.227 337.855 292.774 338.755 279.426L347.96 143.252Z" fill="#9F5FF3"/>
<path d="M440.92 143.252C440.92 143.252 511.498 149.57 516.911 200.671C519.912 229.064 513.951 254.734 508.051 272.05C507.152 274.68 506.736 277.548 506.836 280.426C506.937 283.303 507.551 286.11 508.63 288.623C509.709 291.136 511.222 293.286 513.051 294.902C514.879 296.518 516.972 297.555 519.162 297.931L591.929 311.149V333.224L490.655 329.179C480.384 328.778 470.584 323.478 463.11 314.283C455.636 305.089 451.009 292.639 450.105 279.293L440.92 143.252Z" fill="#9F5FF3"/>
<path opacity="0.46" d="M347.96 143.252C347.96 143.252 277.382 149.57 271.969 200.671C268.968 229.064 274.929 254.734 280.829 272.05C281.728 274.68 282.144 277.548 282.044 280.426C281.943 283.303 281.329 286.11 280.25 288.623C279.171 291.136 277.658 293.286 275.829 294.902C274.001 296.518 271.908 297.555 269.718 297.931L196.951 311.149V333.224L298.205 329.311C308.477 328.916 318.28 323.618 325.755 314.422C333.229 305.227 337.855 292.774 338.755 279.426L347.96 143.252Z" fill="#97EBA4"/>
<path opacity="0.46" d="M440.92 143.252C440.92 143.252 511.498 149.57 516.911 200.671C519.912 229.064 513.951 254.734 508.051 272.05C507.152 274.68 506.736 277.548 506.836 280.426C506.937 283.303 507.551 286.11 508.63 288.623C509.709 291.136 511.222 293.286 513.051 294.902C514.879 296.518 516.972 297.555 519.162 297.931L591.929 311.149V333.224L490.655 329.179C480.384 328.778 470.584 323.478 463.11 314.283C455.636 305.089 451.009 292.639 450.105 279.293L440.92 143.252Z" fill="#97EBA4"/>
<path d="M661.594 349.746H129.375V545.165H661.594V349.746Z" fill="#C9C9C9"/>
<path d="M661.594 329.338H129.375V377.108H661.594V329.338Z" fill="#E6E6E6"/>
<path d="M387.922 143.251L396.538 94.2648C396.538 94.2648 396.822 71.3179 408.115 76.6581C419.409 81.9982 422.795 108.593 416.712 117.582C410.63 126.57 406.575 114.304 406.575 114.304V141.401L387.922 143.251Z" fill="#F4A28C"/>
<path opacity="0.1" d="M536.882 330.977C536.882 330.977 490.108 343.957 509.653 368.569C529.198 393.182 518.411 427.787 504.868 437.78C491.324 447.773 435.223 459.828 453.146 544.134H389.909L385.245 499.192L344.695 443.358L362.416 389.507L412.272 301.13L446.05 337.639L464.541 329.338L536.882 330.977Z" fill="black"/>
<path d="M376.669 141.004C376.669 141.004 306.315 132.836 297.13 194.776C287.946 256.717 353.414 373.619 353.414 373.619L444.651 368.992C444.651 368.992 586.394 109.386 376.669 141.004Z" fill="#9F5FF3"/>
<path d="M385.225 499.112C385.225 499.112 389.28 506.092 386.624 512.701C383.968 519.31 387.8 524.914 391.814 520.314C395.829 515.714 397.491 496.522 397.491 496.522L388.428 489.622L385.225 499.112Z" fill="#9F5FF3"/>
<path d="M353.414 373.619C353.414 373.619 347.331 415.256 361.017 417.239C374.702 419.221 471.515 424.852 487.735 407.166C503.955 389.48 499.9 365.027 444.651 368.992L353.414 373.619Z" fill="#24285B"/>
<path d="M352.623 380.809C352.623 380.809 310.329 423.901 332.125 455.624C353.92 487.348 385.347 505.854 385.347 505.854L389.909 490.653C389.909 490.653 324.015 423.901 386.36 410.682L352.623 380.809Z" fill="#24285B"/>
<path d="M406.757 240.564H381.88C356.26 240.564 335.49 267.645 335.49 301.051C335.49 334.456 356.26 361.537 381.88 361.537H406.757C432.377 361.537 453.146 334.456 453.146 301.051C453.146 267.645 432.377 240.564 406.757 240.564Z" fill="#FFD200"/>
<path d="M405.378 301.051H382.224V422.209H405.378V301.051Z" fill="#FFD200"/>
<path opacity="0.08" d="M405.378 301.051H382.224V422.209H405.378V301.051Z" fill="#9F5FF3"/>
<path d="M440.92 407.166H347.96V443.358H440.92V407.166Z" fill="#FFD200"/>
<path d="M390.578 110.312L390.72 98.7061C390.78 96.035 390.427 93.3755 389.682 90.8863C388.936 88.3972 387.814 86.1295 386.381 84.2189C385.791 83.6197 385.297 82.8745 384.929 82.026C384.561 81.1775 384.325 80.2425 384.234 79.2746C384.144 78.3068 384.201 77.3252 384.402 76.3862C384.603 75.4472 384.945 74.5693 385.407 73.803C390.071 65.1054 394.004 70.7363 398.708 63.0433C403.412 55.3503 406.96 53.8435 412.454 63.0433C417.949 72.2432 422.267 61.51 425.41 72.7719C428.553 84.0339 425.795 89.6648 413.63 90.6959C403.29 91.5683 406.493 106.849 396.903 114.885C396.283 115.433 395.559 115.746 394.81 115.789C394.062 115.833 393.319 115.605 392.663 115.131C392.008 114.657 391.467 113.956 391.098 113.106C390.73 112.255 390.55 111.288 390.578 110.312Z" fill="#24285B"/>
<path d="M401.202 443.331H386.442V526.95H401.202V443.331Z" fill="#FFD200"/>
<path opacity="0.08" d="M401.202 443.331H386.442V526.95H401.202V443.331Z" fill="black"/>
<path d="M386.441 526.95L357.894 561.317H431.979L401.181 526.95H386.441Z" fill="#FFD200"/>
<path d="M634.891 394.107H580.149V517.697H634.891V394.107Z" fill="#A5A5A5"/>
<path d="M567.315 377.108H554.481V545.165H567.315V377.108Z" fill="#E6E6E6"/>
<path d="M661.594 377.108H648.76V545.165H661.594V377.108Z" fill="#E6E6E6"/>
<path d="M661.614 517.697H566.058V545.138H661.614V517.697Z" fill="#E6E6E6"/>
<path d="M156.401 377.108H129.375V545.165H156.401V377.108Z" fill="#E6E6E6"/>
<path opacity="0.42" d="M233.446 497.632H156.401V517.697H233.446V497.632Z" fill="#A5A5A5"/>
<path d="M272.455 516.904H156.401V545.138H272.455V516.904Z" fill="#A5A5A5"/>
<path d="M308.849 126.57H273.834V134.369H308.849V126.57Z" fill="#9F5FF3"/>
<path d="M268.745 275.592C272.899 275.592 276.267 271.201 276.267 265.784C276.267 260.368 272.899 255.976 268.745 255.976C264.591 255.976 261.223 260.368 261.223 265.784C261.223 271.201 264.591 275.592 268.745 275.592Z" fill="#A5A5A5"/>
<path d="M458.985 107.509C460.542 107.509 461.804 105.864 461.804 103.835C461.804 101.805 460.542 100.16 458.985 100.16C457.429 100.16 456.167 101.805 456.167 103.835C456.167 105.864 457.429 107.509 458.985 107.509Z" fill="#FF4B32"/>
<path d="M679.03 46.3884H600.464V116.815H679.03V46.3884Z" fill="#FFD200"/>
<path d="M629.194 95.428C628.789 95.4303 628.396 95.2532 628.079 94.9257L616.36 82.7914C616.147 82.5685 615.975 82.287 615.856 81.967C615.737 81.647 615.674 81.2965 615.671 80.9408C615.67 80.583 615.729 80.2293 615.844 79.9049C615.96 79.5805 616.129 79.2933 616.34 79.0638L628.119 66.718C628.497 66.3447 628.972 66.178 629.443 66.2531C629.913 66.3282 630.343 66.6393 630.641 67.1204C630.939 67.6015 631.081 68.2149 631.038 68.8306C630.995 69.4464 630.77 70.0161 630.411 70.4191L620.395 80.9937L630.39 91.2775C630.58 91.4686 630.738 91.7069 630.856 91.9786C630.974 92.2503 631.049 92.5499 631.078 92.8599C631.106 93.1699 631.087 93.4842 631.021 93.7844C630.955 94.0846 630.844 94.3647 630.694 94.6084C630.512 94.8903 630.281 95.1116 630.02 95.2541C629.759 95.3966 629.476 95.4562 629.194 95.428Z" fill="#97EBA4"/>
<path d="M650.523 95.428C650.25 95.4301 649.98 95.3501 649.733 95.1942C649.487 95.0384 649.272 94.8108 649.104 94.5291C648.955 94.2854 648.844 94.0053 648.778 93.7051C648.712 93.4049 648.693 93.0906 648.721 92.7806C648.749 92.4705 648.825 92.1709 648.943 91.8993C649.061 91.6276 649.219 91.3892 649.408 91.1981L659.384 80.9144L649.388 70.3398C649.177 70.1572 648.997 69.9193 648.861 69.6413C648.724 69.3632 648.633 69.0511 648.594 68.7248C648.555 68.3985 648.568 68.0651 648.633 67.7459C648.698 67.4268 648.814 67.1287 648.972 66.8708C649.13 66.6129 649.328 66.4008 649.552 66.2479C649.777 66.0951 650.023 66.0049 650.276 65.9831C650.529 65.9612 650.782 66.0082 651.02 66.1211C651.258 66.234 651.476 66.4103 651.659 66.6387L663.459 78.9845C663.669 79.214 663.839 79.5011 663.954 79.8256C664.07 80.15 664.129 80.5037 664.128 80.8615C664.125 81.2172 664.062 81.5677 663.943 81.8877C663.823 82.2077 663.651 82.4892 663.439 82.712L651.659 94.8464C651.343 95.2043 650.942 95.4097 650.523 95.428Z" fill="#97EBA4"/>
<path d="M634.932 95.428C634.666 95.4341 634.403 95.3618 634.161 95.2165C633.724 94.952 633.385 94.4728 633.218 93.8834C633.051 93.2939 633.069 92.6423 633.269 92.0705L641.846 67.564C641.946 67.2793 642.087 67.023 642.263 66.8098C642.439 66.5967 642.645 66.4307 642.87 66.3215C643.095 66.2122 643.335 66.1618 643.575 66.1732C643.814 66.1845 644.05 66.2574 644.269 66.3875C644.487 66.5177 644.683 66.7027 644.847 66.9319C645.01 67.1612 645.138 67.4301 645.222 67.7235C645.305 68.0168 645.344 68.3288 645.335 68.6417C645.327 68.9545 645.271 69.262 645.171 69.5467L636.635 94.0533C636.489 94.4783 636.249 94.8366 635.945 95.0817C635.642 95.3267 635.289 95.4474 634.932 95.428Z" fill="#97EBA4"/>
<path opacity="0.58" d="M190.585 467.706C190.585 467.706 171.912 461.044 167.836 438.388C167.836 438.388 196.789 430.774 197.6 469.715L190.585 467.706Z" fill="#9F5FF3"/>
<path opacity="0.73" d="M192.775 465.406C192.775 465.406 179.718 438.494 191.214 413.353C191.214 413.353 213.212 431.567 203.379 465.459L192.775 465.406Z" fill="#9F5FF3"/>
<path d="M196.14 465.406C196.14 465.406 203.034 437.013 223.877 431.62C223.877 431.62 227.769 450.126 210.373 465.485L196.14 465.406Z" fill="#9F5FF3"/>
<path d="M182.597 464.666L186.368 498.451L210.211 498.584L213.739 464.851L182.597 464.666Z" fill="#24285B"/>
<path d="M616.786 431.541C620.66 431.541 623.801 427.446 623.801 422.394C623.801 417.342 620.66 413.247 616.786 413.247C612.911 413.247 609.771 417.342 609.771 422.394C609.771 427.446 612.911 431.541 616.786 431.541Z" fill="#4789C7" fill-opacity="0.88"/>
<path opacity="0.18" d="M627.673 443.331H589.496V505.801H627.673V443.331Z" fill="#0F61FF"/>
</g>
<defs>
<filter id="filter0_d" x="-117" y="407" width="2078" height="548" filterUnits="userSpaceOnUse" color-interpolation-filters="sRGB">
<feFlood flood-opacity="0" result="BackgroundImageFix"/>
<feColorMatrix in="SourceAlpha" type="matrix" values="0 0 0 0 0 0 0 0 0 0 0 0 0 0 0 0 0 0 127 0"/>
<feOffset dy="4"/>
<feGaussianBlur stdDeviation="2"/>
<feColorMatrix type="matrix" values="0 0 0 0 0 0 0 0 0 0 0 0 0 0 0 0 0 0 0.25 0"/>
<feBlend mode="normal" in2="BackgroundImageFix" result="effect1_dropShadow"/>
<feBlend mode="normal" in="SourceGraphic" in2="effect1_dropShadow" result="shape"/>
</filter>
<linearGradient id="paint0_linear" x1="1788.5" y1="875.725" x2="465" y2="875.725" gradientUnits="userSpaceOnUse">
<stop stop-color="#9F5FF3"/>
<stop offset="1" stop-color="#6369FF"/>
</linearGradient>
<clipPath id="clip0">
<rect width="1920" height="950" fill="white"/>
</clipPath>
</defs>
</svg>
