<svg width="auto" height="auto" viewBox="0 0 1920 900" fill="none" xmlns="http://www.w3.org/2000/svg">
<g clip-path="url(#clip0)">
<rect width="1920" height="900" fill="white"/>
<g filter="url(#filter0_d)">
<path d="M0 752.4L32 760.549C64 769.313 128 784.688 192 768.851C256 752.4 320 703.2 384 662.149C448 621.713 512 587.888 576 629.4C640 670.913 704 784.687 768 809.749C832 833.887 896 769.313 960 727.8C1024 686.288 1088 670.913 1152 695.051C1216 720.113 1280 784.688 1344 768.851C1408 752.4 1472 654 1536 637.549C1600 621.713 1664 686.288 1728 735.949C1792 784.688 1856 818.512 1888 834.349L1920 850.8V900H1888C1856 900 1792 900 1728 900C1664 900 1600 900 1536 900C1472 900 1408 900 1344 900C1280 900 1216 900 1152 900C1088 900 1024 900 960 900C896 900 832 900 768 900C704 900 640 900 576 900C512 900 448 900 384 900C320 900 256 900 192 900C128 900 64 900 32 900H0V752.4Z" fill="url(#paint0_linear)"/>
</g>
<path d="M438 354.508C438 354.508 460.245 349.732 458.745 367.783H438V354.508Z" fill="#F4A28C"/>
<path d="M388.62 321.67L381.9 364.957H419.64L414.495 315.202L388.62 321.67Z" fill="#C9C9C9"/>
<path d="M475.92 181.938H326.205V316.854H475.92V181.938Z" fill="#24285B"/>
<path d="M425.91 271.139H378.81V277.01H425.91V271.139Z" fill="#9F5FF3"/>
<path d="M446.895 286.543H399.795V292.414H446.895V286.543Z" fill="#FFD200"/>
<path d="M475.92 305.251H326.205V330.785H475.92V305.251Z" fill="#E6E6E6"/>
<path d="M406.995 256.949H367.47V262.82H406.995V256.949Z" fill="#9F5FF3"/>
<path d="M454.74 256.949H415.215V262.82H454.74V256.949Z" fill="#9F5FF3"/>
<path d="M414.15 240.609H378.81V246.48H414.15V240.609Z" fill="#FFD200"/>
<path d="M458.685 240.609H423.345V246.48H458.685V240.609Z" fill="#FFD200"/>
<path d="M370.53 271.139H352.815V277.01H370.53V271.139Z" fill="#97EBA4"/>
<path d="M388.17 286.543H370.455V292.414H388.17V286.543Z" fill="#97EBA4"/>
<path d="M359.19 256.949H341.475V262.82H359.19V256.949Z" fill="#97EBA4"/>
<path opacity="0.14" d="M345.765 229.305C345.765 229.305 418.905 219.553 402.765 330.805L408.33 357.931L385.5 341.492L387.33 330.825H375.24L345.765 229.305Z" fill="black"/>
<path d="M345.765 197.959C346.917 197.959 347.85 196.721 347.85 195.193C347.85 193.665 346.917 192.427 345.765 192.427C344.614 192.427 343.68 193.665 343.68 195.193C343.68 196.721 344.614 197.959 345.765 197.959Z" fill="#F8E437"/>
<path d="M351.615 197.959C352.767 197.959 353.7 196.721 353.7 195.193C353.7 193.665 352.767 192.427 351.615 192.427C350.464 192.427 349.53 193.665 349.53 195.193C349.53 196.721 350.464 197.959 351.615 197.959Z" fill="#7AFB65"/>
<path d="M359.19 212.309H341.475V218.18H359.19V212.309Z" fill="#97EBA4"/>
<path d="M370.53 226.996H352.815V232.867H370.53V226.996Z" fill="#97EBA4"/>
<path d="M414.15 226.996H378.81V232.867H414.15V226.996Z" fill="#FFD200"/>
<path d="M458.685 226.996H423.345V232.867H458.685V226.996Z" fill="#FFD200"/>
<path d="M370.53 240.609H352.815V246.48H370.53V240.609Z" fill="#97EBA4"/>
<path d="M402.765 212.309H366.27V218.18H402.765V212.309Z" fill="#9F5FF3"/>
<path d="M436.305 212.309H410.4V218.18H436.305V212.309Z" fill="#9F5FF3"/>
<path d="M402.765 324.496C405.838 324.496 408.33 321.19 408.33 317.112C408.33 313.035 405.838 309.729 402.765 309.729C399.692 309.729 397.2 313.035 397.2 317.112C397.2 321.19 399.692 324.496 402.765 324.496Z" fill="#A5A5A5"/>
<path d="M190.965 357.991H115.71V364.957H190.965V357.991Z" fill="#C9C9C9"/>
<path d="M145.71 354.508C145.71 354.508 123.465 349.732 124.965 367.783H145.71V354.508Z" fill="#F4A28C"/>
<path d="M187.08 321.67L180.36 364.957H218.1L212.955 315.202L187.08 321.67Z" fill="#C9C9C9"/>
<path d="M268.11 181.938H118.395V316.854H268.11V181.938Z" fill="#24285B"/>
<path d="M218.1 271.139H171V277.01H218.1V271.139Z" fill="#9F5FF3"/>
<path d="M268.11 305.251H118.395V330.785H268.11V305.251Z" fill="#E6E6E6"/>
<path d="M199.185 256.949H159.66V262.82H199.185V256.949Z" fill="#9F5FF3"/>
<path d="M206.34 240.609H171V246.48H206.34V240.609Z" fill="#FFD200"/>
<path d="M162.72 271.139H145.005V277.01H162.72V271.139Z" fill="#97EBA4"/>
<path d="M180.36 286.543H162.645V292.414H180.36V286.543Z" fill="#97EBA4"/>
<path d="M151.38 256.949H133.665V262.82H151.38V256.949Z" fill="#97EBA4"/>
<path d="M131.76 197.959C132.912 197.959 133.845 196.721 133.845 195.193C133.845 193.665 132.912 192.427 131.76 192.427C130.608 192.427 129.675 193.665 129.675 195.193C129.675 196.721 130.608 197.959 131.76 197.959Z" fill="#FE7A5D"/>
<path d="M137.955 197.959C139.107 197.959 140.04 196.721 140.04 195.193C140.04 193.665 139.107 192.427 137.955 192.427C136.803 192.427 135.87 193.665 135.87 195.193C135.87 196.721 136.803 197.959 137.955 197.959Z" fill="#F8E437"/>
<path d="M143.805 197.959C144.957 197.959 145.89 196.721 145.89 195.193C145.89 193.665 144.957 192.427 143.805 192.427C142.653 192.427 141.72 193.665 141.72 195.193C141.72 196.721 142.653 197.959 143.805 197.959Z" fill="#7AFB65"/>
<path d="M151.38 212.309H133.665V218.18H151.38V212.309Z" fill="#97EBA4"/>
<path d="M162.72 226.996H145.005V232.867H162.72V226.996Z" fill="#97EBA4"/>
<path d="M206.34 226.996H171V232.867H206.34V226.996Z" fill="#FFD200"/>
<path d="M162.72 240.609H145.005V246.48H162.72V240.609Z" fill="#97EBA4"/>
<path d="M194.955 212.309H158.46V218.18H194.955V212.309Z" fill="#9F5FF3"/>
<path opacity="0.45" d="M294.09 569.071C427.881 569.071 536.34 550.422 536.34 527.416C536.34 504.411 427.881 485.762 294.09 485.762C160.299 485.762 51.84 504.411 51.84 527.416C51.84 550.422 160.299 569.071 294.09 569.071Z" fill="#E6E6E6"/>
<path d="M257.43 224.867C257.43 224.867 205.215 229.623 201.21 268.094C198.99 289.469 203.4 308.793 207.765 321.829C208.43 323.81 208.738 325.969 208.664 328.135C208.589 330.301 208.135 332.414 207.337 334.306C206.539 336.198 205.419 337.816 204.066 339.033C202.713 340.249 201.165 341.03 199.545 341.313L145.71 351.264V367.882L220.62 364.937C228.22 364.639 235.472 360.651 241.002 353.728C246.532 346.806 249.955 337.431 250.62 327.382L257.43 224.867Z" fill="#9F5FF3"/>
<path d="M326.205 224.867C326.205 224.867 378.42 229.623 382.425 268.094C384.645 289.469 380.235 308.793 375.87 321.829C375.205 323.81 374.897 325.969 374.971 328.135C375.046 330.301 375.5 332.414 376.298 334.306C377.096 336.198 378.216 337.816 379.569 339.033C380.922 340.249 382.47 341.03 384.09 341.313L437.925 351.264V367.882L363 364.837C355.402 364.535 348.151 360.545 342.621 353.624C337.092 346.702 333.669 337.329 333 327.282L326.205 224.867Z" fill="#9F5FF3"/>
<path opacity="0.46" d="M257.43 224.867C257.43 224.867 205.215 229.623 201.21 268.094C198.99 289.469 203.4 308.793 207.765 321.829C208.43 323.81 208.738 325.969 208.664 328.135C208.589 330.301 208.135 332.414 207.337 334.306C206.539 336.198 205.419 337.816 204.066 339.033C202.713 340.249 201.165 341.03 199.545 341.313L145.71 351.264V367.882L220.62 364.937C228.22 364.639 235.472 360.651 241.002 353.728C246.532 346.806 249.955 337.431 250.62 327.382L257.43 224.867Z" fill="#97EBA4"/>
<path opacity="0.46" d="M326.205 224.867C326.205 224.867 378.42 229.623 382.425 268.094C384.645 289.469 380.235 308.793 375.87 321.829C375.205 323.81 374.897 325.969 374.971 328.135C375.046 330.301 375.5 332.414 376.298 334.306C377.096 336.198 378.216 337.816 379.569 339.033C380.922 340.249 382.47 341.03 384.09 341.313L437.925 351.264V367.882L363 364.837C355.402 364.535 348.151 360.545 342.621 353.624C337.092 346.702 333.669 337.329 333 327.282L326.205 224.867Z" fill="#97EBA4"/>
<path d="M489.465 380.321H95.715V527.436H489.465V380.321Z" fill="#C9C9C9"/>
<path d="M489.465 364.957H95.715V400.92H489.465V364.957Z" fill="#E6E6E6"/>
<path d="M286.995 224.867L293.37 187.989C293.37 187.989 293.58 170.714 301.935 174.734C310.29 178.754 312.795 198.775 308.295 205.542C303.795 212.309 300.795 203.074 300.795 203.074V223.474L286.995 224.867Z" fill="#F4A28C"/>
<path opacity="0.1" d="M397.2 366.191C397.2 366.191 362.595 375.963 377.055 394.491C391.515 413.02 383.535 439.072 373.515 446.595C363.495 454.118 321.99 463.193 335.25 526.66H288.465L285.015 492.827L255.015 450.794L268.125 410.254L305.01 343.721L330 371.206L343.68 364.957L397.2 366.191Z" fill="black"/>
<path d="M278.67 223.175C278.67 223.175 226.62 217.025 219.825 263.656C213.03 310.286 261.465 398.293 261.465 398.293L328.965 394.81C328.965 394.81 433.83 199.372 278.67 223.175Z" fill="#9F5FF3"/>
<path d="M285 492.767C285 492.767 288 498.021 286.035 502.997C284.07 507.972 286.905 512.192 289.875 508.729C292.845 505.266 294.075 490.817 294.075 490.817L287.37 485.622L285 492.767Z" fill="#9F5FF3"/>
<path d="M261.465 398.293C261.465 398.293 256.965 429.638 267.09 431.131C277.215 432.623 348.84 436.863 360.84 423.548C372.84 410.234 369.84 391.824 328.965 394.81L261.465 398.293Z" fill="#24285B"/>
<path d="M260.88 403.706C260.88 403.706 229.59 436.146 245.715 460.028C261.84 483.911 285.09 497.842 285.09 497.842L288.465 486.399C288.465 486.399 239.715 436.146 285.84 426.195L260.88 403.706Z" fill="#24285B"/>
<path d="M300.93 298.126H282.525C263.571 298.126 248.205 318.513 248.205 343.662C248.205 368.81 263.571 389.197 282.525 389.197H300.93C319.884 389.197 335.25 368.81 335.25 343.662C335.25 318.513 319.884 298.126 300.93 298.126Z" fill="#FFD200"/>
<path d="M299.91 343.662H282.78V434.872H299.91V343.662Z" fill="#FFD200"/>
<path opacity="0.08" d="M299.91 343.662H282.78V434.872H299.91V343.662Z" fill="#9F5FF3"/>
<path d="M326.205 423.548H257.43V450.794H326.205V423.548Z" fill="#FFD200"/>
<path d="M288.96 200.069L289.065 191.332C289.11 189.321 288.849 187.319 288.297 185.445C287.746 183.571 286.915 181.864 285.855 180.426C285.419 179.975 285.054 179.414 284.781 178.775C284.509 178.136 284.334 177.432 284.267 176.704C284.2 175.975 284.242 175.236 284.391 174.529C284.54 173.822 284.793 173.161 285.135 172.584C288.585 166.037 291.495 170.276 294.975 164.484C298.455 158.693 301.08 157.558 305.145 164.484C309.21 171.41 312.405 163.33 314.73 171.808C317.055 180.286 315.015 184.526 306.015 185.302C298.365 185.959 300.735 197.462 293.64 203.512C293.181 203.924 292.645 204.16 292.091 204.193C291.538 204.225 290.988 204.054 290.503 203.697C290.018 203.341 289.618 202.813 289.345 202.172C289.073 201.532 288.94 200.804 288.96 200.069Z" fill="#24285B"/>
<path d="M296.82 450.774H285.9V513.724H296.82V450.774Z" fill="#FFD200"/>
<path opacity="0.08" d="M296.82 450.774H285.9V513.724H296.82V450.774Z" fill="black"/>
<path d="M285.9 513.724L264.78 539.597H319.59L296.805 513.724H285.9Z" fill="#FFD200"/>
<path d="M469.71 413.717H429.21V506.758H469.71V413.717Z" fill="#A5A5A5"/>
<path d="M419.715 400.92H410.22V527.436H419.715V400.92Z" fill="#E6E6E6"/>
<path d="M489.465 400.92H479.97V527.436H489.465V400.92Z" fill="#E6E6E6"/>
<path d="M489.48 506.758H418.785V527.416H489.48V506.758Z" fill="#E6E6E6"/>
<path d="M115.71 400.92H95.715V527.436H115.71V400.92Z" fill="#E6E6E6"/>
<path opacity="0.42" d="M172.71 491.653H115.71V506.758H172.71V491.653Z" fill="#A5A5A5"/>
<path d="M201.57 506.161H115.71V527.416H201.57V506.161Z" fill="#A5A5A5"/>
<path d="M228.495 212.309H202.59V218.18H228.495V212.309Z" fill="#9F5FF3"/>
<path d="M198.825 324.496C201.898 324.496 204.39 321.19 204.39 317.112C204.39 313.035 201.898 309.729 198.825 309.729C195.752 309.729 193.26 313.035 193.26 317.112C193.26 321.19 195.752 324.496 198.825 324.496Z" fill="#A5A5A5"/>
<path d="M339.57 197.959C340.722 197.959 341.655 196.721 341.655 195.193C341.655 193.665 340.722 192.427 339.57 192.427C338.418 192.427 337.485 193.665 337.485 195.193C337.485 196.721 338.418 197.959 339.57 197.959Z" fill="#FF4B32"/>
<path d="M502.365 151.946H444.24V204.965H502.365V151.946Z" fill="#FFD200"/>
<path d="M465.495 188.864C465.196 188.866 464.905 188.733 464.67 188.486L456 179.351C455.843 179.183 455.715 178.971 455.627 178.73C455.539 178.49 455.492 178.226 455.49 177.958C455.489 177.689 455.533 177.422 455.619 177.178C455.704 176.934 455.829 176.718 455.985 176.545L464.7 167.251C464.98 166.97 465.331 166.844 465.679 166.901C466.027 166.957 466.345 167.191 466.565 167.554C466.786 167.916 466.891 168.378 466.859 168.841C466.828 169.305 466.661 169.734 466.395 170.037L458.985 177.998L466.38 185.74C466.52 185.883 466.637 186.063 466.724 186.267C466.812 186.472 466.867 186.698 466.888 186.931C466.909 187.164 466.895 187.401 466.846 187.627C466.798 187.853 466.716 188.064 466.605 188.247C466.47 188.459 466.299 188.626 466.106 188.733C465.913 188.841 465.704 188.885 465.495 188.864V188.864Z" fill="#9F5FF3"/>
<path d="M481.275 188.864C481.073 188.866 480.873 188.806 480.691 188.688C480.509 188.571 480.349 188.4 480.225 188.188C480.114 188.004 480.032 187.793 479.984 187.567C479.935 187.341 479.921 187.105 479.942 186.871C479.963 186.638 480.018 186.412 480.106 186.208C480.193 186.003 480.31 185.824 480.45 185.68L487.83 177.938L480.435 169.977C480.279 169.84 480.146 169.661 480.045 169.451C479.944 169.242 479.877 169.007 479.848 168.761C479.819 168.516 479.829 168.265 479.877 168.025C479.925 167.784 480.01 167.56 480.127 167.366C480.244 167.172 480.39 167.012 480.557 166.897C480.723 166.782 480.905 166.714 481.092 166.697C481.279 166.681 481.467 166.716 481.643 166.801C481.819 166.886 481.98 167.019 482.115 167.191L490.845 176.485C491.001 176.658 491.126 176.874 491.212 177.118C491.297 177.363 491.341 177.629 491.34 177.898C491.338 178.166 491.291 178.43 491.203 178.671C491.115 178.912 490.987 179.124 490.83 179.291L482.115 188.426C481.881 188.696 481.585 188.85 481.275 188.864V188.864Z" fill="#9F5FF3"/>
<path d="M469.74 188.864C469.543 188.869 469.349 188.814 469.17 188.705C468.847 188.506 468.596 188.145 468.472 187.701C468.348 187.258 468.362 186.767 468.51 186.337L474.855 167.888C474.929 167.673 475.034 167.48 475.164 167.32C475.294 167.159 475.447 167.034 475.613 166.952C475.78 166.87 475.957 166.832 476.134 166.841C476.312 166.849 476.486 166.904 476.648 167.002C476.809 167.1 476.954 167.239 477.075 167.412C477.196 167.584 477.291 167.787 477.353 168.008C477.415 168.228 477.443 168.463 477.437 168.699C477.43 168.934 477.389 169.166 477.315 169.38L471 187.829C470.892 188.149 470.714 188.419 470.49 188.604C470.265 188.788 470.004 188.879 469.74 188.864V188.864Z" fill="#9F5FF3"/>
<path opacity="0.58" d="M141 469.124C141 469.124 127.185 464.108 124.17 447.052C124.17 447.052 145.59 441.321 146.19 470.636L141 469.124Z" fill="#9F5FF3"/>
<path opacity="0.73" d="M142.62 467.392C142.62 467.392 132.96 447.132 141.465 428.205C141.465 428.205 157.74 441.918 150.465 467.432L142.62 467.392Z" fill="#9F5FF3"/>
<path d="M145.11 467.392C145.11 467.392 150.21 446.017 165.63 441.957C165.63 441.957 168.51 455.889 155.64 467.452L145.11 467.392Z" fill="#9F5FF3"/>
<path d="M135.09 466.835L137.88 492.27L155.52 492.369L158.13 466.974L135.09 466.835Z" fill="#24285B"/>
<path d="M456.315 441.898C459.181 441.898 461.505 438.815 461.505 435.012C461.505 431.209 459.181 428.126 456.315 428.126C453.449 428.126 451.125 431.209 451.125 435.012C451.125 438.815 453.449 441.898 456.315 441.898Z" fill="#4789C7" fill-opacity="0.88"/>
<path opacity="0.18" d="M464.37 450.774H436.125V497.802H464.37V450.774Z" fill="#0F61FF"/>
</g>
<defs>
<filter id="filter0_d" x="-4" y="408" width="1928" height="500" filterUnits="userSpaceOnUse" color-interpolation-filters="sRGB">
<feFlood flood-opacity="0" result="BackgroundImageFix"/>
<feColorMatrix in="SourceAlpha" type="matrix" values="0 0 0 0 0 0 0 0 0 0 0 0 0 0 0 0 0 0 127 0"/>
<feOffset dy="4"/>
<feGaussianBlur stdDeviation="2"/>
<feColorMatrix type="matrix" values="0 0 0 0 0 0 0 0 0 0 0 0 0 0 0 0 0 0 0.25 0"/>
<feBlend mode="normal" in2="BackgroundImageFix" result="effect1_dropShadow"/>
<feBlend mode="normal" in="SourceGraphic" in2="effect1_dropShadow" result="shape"/>
</filter>
<linearGradient id="paint0_linear" x1="1763.71" y1="835.06" x2="536.116" y2="835.06" gradientUnits="userSpaceOnUse">
<stop stop-color="#9F5FF3"/>
<stop offset="1" stop-color="#6369FF"/>
</linearGradient>
<clipPath id="clip0">
<rect width="1920" height="900" fill="white"/>
</clipPath>
</defs>
</svg>
