<svg width="500" height="400" viewBox="0 0 500 400" fill="none" xmlns="http://www.w3.org/2000/svg">
<rect width="500" height="400" fill="#68C1FB"/>
<g clip-path="url(#clip0)">
<path opacity="0.18" d="M266.532 32.1117C246.808 34.0949 234.643 59.2992 216.898 70.0009C208.926 74.8107 199.944 76.5744 191.767 80.8373C177.857 88.0848 166.121 104.856 167.377 123.251C169.005 147.096 190.072 161.903 196.694 184.419C198.521 190.635 199.19 197.289 201.073 203.474C205.774 218.912 218.513 230.176 231.99 230.815C242.814 231.327 253.143 225.647 263.854 223.645C276.965 221.188 290.332 224.296 303.604 223.745C316.877 223.194 331.367 217.687 337.875 203.578C343.143 192.152 341.856 177.919 338.941 165.3C336.026 152.68 331.6 140.365 331.01 127.272C330.329 112.026 334.383 94.4619 326.136 82.9862C320.016 74.4487 308.712 72.4346 304.346 62.4222C299.632 51.6397 297.979 50.2033 290.054 43.8108C282.218 37.476 276.864 31.0719 266.532 32.1117Z" fill="#7D259B"/>
<path d="M317.498 54.2506H269.826C265.974 54.2506 262.851 58.0626 262.851 62.765V188.848C262.851 193.55 265.974 197.362 269.826 197.362H317.498C321.35 197.362 324.473 193.55 324.473 188.848V62.765C324.473 58.0626 321.35 54.2506 317.498 54.2506Z" fill="#B538DF"/>
<path d="M321.94 64.987V185.32C321.939 187.431 321.252 189.455 320.029 190.946C318.806 192.438 317.148 193.276 315.419 193.276H271.905C270.177 193.274 268.52 192.435 267.299 190.944C266.078 189.452 265.391 187.43 265.39 185.32V64.9908C265.391 62.8807 266.078 60.8573 267.3 59.3648C268.522 57.8724 270.179 57.033 271.908 57.031H278.533V57.6587C278.533 58.2468 278.628 58.8292 278.812 59.3726C278.997 59.9159 279.267 60.4097 279.608 60.8255C279.948 61.2414 280.353 61.5713 280.798 61.7964C281.243 62.0215 281.72 62.1373 282.202 62.1373H304.784C305.266 62.1378 305.743 62.0223 306.189 61.7974C306.634 61.5725 307.039 61.2426 307.38 60.8267C307.72 60.4107 307.991 59.9168 308.175 59.3732C308.359 58.8296 308.454 58.247 308.453 57.6587V57.031H315.422C317.15 57.033 318.807 57.8719 320.029 59.3635C321.251 60.8551 321.938 62.8775 321.94 64.987Z" fill="#B538DF"/>
<path opacity="0.81" d="M321.94 64.987V185.32C321.939 187.431 321.252 189.455 320.029 190.946C318.806 192.438 317.148 193.276 315.419 193.276H271.905C270.177 193.274 268.52 192.435 267.299 190.944C266.078 189.452 265.391 187.43 265.39 185.32V64.9908C265.391 62.8807 266.078 60.8573 267.3 59.3648C268.522 57.8724 270.179 57.033 271.908 57.031H278.533V57.6587C278.533 58.2468 278.628 58.8292 278.812 59.3726C278.997 59.9159 279.267 60.4097 279.608 60.8255C279.948 61.2414 280.353 61.5713 280.798 61.7964C281.243 62.0215 281.72 62.1373 282.202 62.1373H304.784C305.266 62.1378 305.743 62.0223 306.189 61.7974C306.634 61.5725 307.039 61.2426 307.38 60.8267C307.72 60.4107 307.991 59.9168 308.175 59.3732C308.359 58.8296 308.454 58.247 308.453 57.6587V57.031H315.422C317.15 57.033 318.807 57.8719 320.029 59.3635C321.251 60.8551 321.938 62.8775 321.94 64.987Z" fill="url(#paint0_linear)"/>
<path opacity="0.17" d="M313.11 133.961H277.978C276.201 133.961 274.76 135.719 274.76 137.889V148.409C274.76 150.579 276.201 152.337 277.978 152.337H313.11C314.887 152.337 316.328 150.579 316.328 148.409V137.889C316.328 135.719 314.887 133.961 313.11 133.961Z" fill="#68C1FB"/>
<path opacity="0.17" d="M313.11 159.816H277.978C276.201 159.816 274.76 161.574 274.76 163.744V174.265C274.76 176.434 276.201 178.192 277.978 178.192H313.11C314.887 178.192 316.328 176.434 316.328 174.265V163.744C316.328 161.574 314.887 159.816 313.11 159.816Z" fill="#68C1FB"/>
<path d="M332.644 144.424L317.738 126.987C317.738 126.987 312.312 132.232 314.627 141.724C316.943 151.217 324.473 162.642 324.473 162.642V188.829C324.473 188.829 324.558 197.347 317.495 197.347H269.826C269.826 197.347 273.984 210.71 282.445 222.054C290.906 233.399 306.087 247.413 305.437 262H346.715C346.715 262 336.14 216.055 339.774 197.362C343.408 178.67 342.052 155.418 332.644 144.424Z" fill="url(#paint1_linear)"/>
<path d="M269.548 108.591C268.04 108.14 264.261 104.96 261.182 101.559C259.226 99.4026 257.551 97.1576 256.916 95.4632C255.282 91.1039 254.995 81.5575 261.182 82.2892C261.182 82.2892 263.706 81.5883 269.548 92.2207C275.391 102.853 272.015 109.33 269.548 108.591Z" fill="url(#paint2_linear)"/>
<path d="M270.753 126.317C269.176 126.201 264.759 123.764 261.172 120.995C259.065 119.37 257.229 117.629 256.396 116.173C254.143 112.245 252.456 102.919 258.652 102.283C258.652 102.283 259.352 101.898 261.175 103.053C262.699 104.012 265.005 106.026 268.346 110.212C275.669 119.389 273.296 126.502 270.753 126.317Z" fill="url(#paint3_linear)"/>
<path d="M266.911 149.384C265.863 149.037 263.469 146.823 261.182 144.158C258.973 141.597 256.888 138.62 256.178 136.491C254.727 132.139 254.285 122.524 259.415 123.097C259.415 123.097 259.961 122.893 261.182 124.129C262.333 125.285 264.087 127.749 266.545 132.879C271.615 143.442 268.961 150.058 266.911 149.384Z" fill="url(#paint4_linear)"/>
<path d="M269.264 168.504C267.936 168.38 264.075 166.008 261.182 163.474C259.819 162.28 258.658 161.052 258.099 160.008C256.333 156.754 254.945 149.072 259.737 148.621C259.737 148.621 260.144 148.398 261.182 148.972C262.333 149.607 264.267 151.232 267.28 155.249C272.996 162.87 271.22 168.685 269.264 168.504Z" fill="url(#paint5_linear)"/>
<path opacity="0.17" d="M313.11 82.2506H277.978C276.201 82.2506 274.76 84.0092 274.76 86.1786V96.6993C274.76 98.8686 276.201 100.627 277.978 100.627H313.11C314.887 100.627 316.328 98.8686 316.328 96.6993V86.1786C316.328 84.0092 314.887 82.2506 313.11 82.2506Z" fill="#F2F488"/>
<path opacity="0.17" d="M313.11 108.106H277.978C276.201 108.106 274.76 109.864 274.76 112.034V122.554C274.76 124.724 276.201 126.482 277.978 126.482H313.11C314.887 126.482 316.328 124.724 316.328 122.554V112.034C316.328 109.864 314.887 108.106 313.11 108.106Z" fill="#68C1FB"/>
<path opacity="0.81" d="M261.182 82.2892V101.544C259.226 99.3872 257.551 97.1422 256.916 95.4477C255.295 91.1039 254.995 81.5575 261.182 82.2892Z" fill="url(#paint6_linear)"/>
<path opacity="0.81" d="M261.182 103.049V120.995C259.074 119.37 257.238 117.629 256.405 116.173C254.153 112.245 252.465 102.919 258.661 102.283C258.661 102.283 259.361 101.913 261.182 103.049Z" fill="url(#paint7_linear)"/>
<path opacity="0.81" d="M261.182 124.129V144.154C258.973 141.593 256.888 138.617 256.178 136.487C254.727 132.135 254.285 122.52 259.415 123.093C259.415 123.097 259.961 122.882 261.182 124.129Z" fill="url(#paint8_linear)"/>
<path opacity="0.81" d="M261.182 148.972V163.474C259.819 162.28 258.658 161.052 258.099 160.008C256.333 156.754 254.945 149.072 259.737 148.621C259.737 148.621 260.144 148.398 261.182 148.972Z" fill="url(#paint9_linear)"/>
<path d="M256.462 46.6335V195.791C256.462 196.909 256.283 198.015 255.933 199.048C255.582 200.08 255.069 201.018 254.422 201.809C253.775 202.599 253.006 203.226 252.161 203.654C251.315 204.082 250.409 204.302 249.493 204.302H191.502C190.586 204.302 189.68 204.082 188.834 203.654C187.988 203.226 187.22 202.599 186.573 201.809C185.925 201.018 185.412 200.08 185.062 199.048C184.712 198.015 184.532 196.909 184.533 195.791V46.6335C184.532 45.516 184.712 44.4095 185.062 43.3769C185.412 42.3444 185.925 41.4062 186.573 40.6159C187.22 39.8255 187.988 39.1986 188.834 38.7709C189.68 38.3431 190.586 38.123 191.502 38.123H249.493C250.409 38.123 251.315 38.3431 252.161 38.7709C253.006 39.1986 253.775 39.8255 254.422 40.6159C255.069 41.4062 255.582 42.3444 255.933 43.3769C256.283 44.4095 256.462 45.516 256.462 46.6335Z" fill="#B538DF"/>
<path opacity="0.17" d="M202.319 38.123V204.302H191.502C190.586 204.302 189.68 204.082 188.834 203.654C187.988 203.226 187.22 202.599 186.573 201.809C185.926 201.018 185.412 200.08 185.062 199.048C184.712 198.015 184.532 196.909 184.533 195.791V46.6335C184.532 45.516 184.712 44.4095 185.062 43.3769C185.412 42.3444 185.926 41.4062 186.573 40.6159C187.22 39.8255 187.988 39.1986 188.834 38.7709C189.68 38.3431 190.586 38.123 191.502 38.123H202.319Z" fill="#68C1FB"/>
<path opacity="0.19" d="M245.606 116.57V143.457C245.606 144.602 245.234 145.7 244.571 146.51C243.907 147.319 243.008 147.774 242.07 147.774H184.533V112.257H242.07C242.534 112.256 242.994 112.368 243.423 112.584C243.852 112.801 244.242 113.118 244.57 113.519C244.899 113.919 245.159 114.395 245.337 114.919C245.515 115.442 245.606 116.003 245.606 116.57Z" fill="url(#paint10_linear)"/>
<path d="M238.243 105.784H171.557C169.604 105.784 168.02 107.716 168.02 110.1V136.988C168.02 139.372 169.604 141.304 171.557 141.304H238.243C240.196 141.304 241.78 139.372 241.78 136.988V110.1C241.78 107.716 240.196 105.784 238.243 105.784Z" fill="#DD95FF"/>
<path opacity="0.19" d="M242.452 72.8197H196.543C196.098 72.8197 195.67 72.604 195.355 72.2199C195.04 71.8358 194.862 71.3147 194.861 70.771C194.861 70.2267 195.039 69.7046 195.354 69.3197C195.669 68.9348 196.097 68.7185 196.543 68.7185H242.452C242.898 68.7185 243.325 68.9348 243.641 69.3197C243.956 69.7046 244.133 70.2267 244.133 70.771C244.133 71.0404 244.09 71.3071 244.005 71.5559C243.921 71.8047 243.797 72.0308 243.64 72.2211C243.484 72.4113 243.299 72.5622 243.095 72.6649C242.891 72.7676 242.672 72.8202 242.452 72.8197Z" fill="url(#paint11_linear)"/>
<path opacity="0.19" d="M242.452 85.4277H196.543C196.097 85.4277 195.669 85.2114 195.354 84.8265C195.039 84.4415 194.861 83.9195 194.861 83.3751C194.862 82.8314 195.04 82.3103 195.355 81.9262C195.67 81.5421 196.098 81.3264 196.543 81.3264H242.452C242.672 81.3259 242.891 81.3785 243.095 81.4813C243.299 81.584 243.484 81.7348 243.64 81.9251C243.797 82.1154 243.921 82.3414 244.005 82.5902C244.09 82.839 244.133 83.1057 244.133 83.3751C244.133 83.9195 243.956 84.4415 243.641 84.8265C243.325 85.2114 242.898 85.4277 242.452 85.4277Z" fill="url(#paint12_linear)"/>
<path opacity="0.19" d="M242.452 98.0279H196.543C196.098 98.0279 195.67 97.8121 195.355 97.4281C195.04 97.044 194.862 96.5229 194.861 95.9792C194.861 95.4348 195.039 94.9127 195.354 94.5278C195.669 94.1429 196.097 93.9266 196.543 93.9266H242.452C242.898 93.9266 243.325 94.1429 243.641 94.5278C243.956 94.9127 244.133 95.4348 244.133 95.9792C244.133 96.2485 244.09 96.5153 244.005 96.7641C243.921 97.0129 243.797 97.2389 243.64 97.4292C243.484 97.6195 243.299 97.7703 243.095 97.873C242.891 97.9758 242.672 98.0284 242.452 98.0279Z" fill="url(#paint13_linear)"/>
<path opacity="0.19" d="M190.167 114.795V131.15C190.167 131.967 189.908 132.752 189.445 133.342C188.982 133.932 188.35 134.28 187.681 134.315C187.643 134.319 187.605 134.319 187.568 134.315H174.169C173.48 134.315 172.818 133.981 172.331 133.386C171.843 132.791 171.57 131.983 171.57 131.142V114.795C171.57 114.378 171.637 113.966 171.767 113.581C171.898 113.196 172.09 112.847 172.331 112.552C172.573 112.258 172.859 112.025 173.175 111.866C173.49 111.707 173.828 111.625 174.169 111.625H187.568C187.909 111.625 188.247 111.707 188.562 111.866C188.877 112.025 189.164 112.258 189.406 112.552C189.647 112.847 189.838 113.196 189.969 113.581C190.1 113.966 190.167 114.378 190.167 114.795Z" fill="url(#paint14_linear)"/>
<path opacity="0.17" d="M187.978 131.831C187.978 132.667 187.878 133.499 187.681 134.3C187.643 134.304 187.605 134.304 187.568 134.3H174.257C173.735 132.177 173.907 129.89 174.736 127.918C175.565 125.947 176.988 124.444 178.706 123.725C177.985 123.228 177.417 122.457 177.088 121.531C176.759 120.604 176.686 119.571 176.881 118.589C177.075 117.607 177.527 116.73 178.167 116.09C178.808 115.449 179.601 115.082 180.428 115.042C181.255 115.002 182.071 115.292 182.75 115.869C183.43 116.446 183.937 117.277 184.194 118.237C184.452 119.197 184.446 120.234 184.177 121.189C183.909 122.145 183.392 122.968 182.706 123.532C184.215 124.004 185.553 125.076 186.507 126.579C187.462 128.081 187.979 129.93 187.978 131.831Z" fill="#68C1FB"/>
</g>
<path d="M0 286L10.4167 295.5C20.8333 305 41.6667 324 62.5 324C83.3333 324 104.167 305 125 292.353C145.833 279.469 166.667 273.531 187.5 276.5C208.333 279.469 229.167 292.531 250 295.5C270.833 298.469 291.667 292.531 312.5 289.147C333.333 286 354.167 286 375 298.647C395.833 311.531 416.667 336.469 437.5 339.853C458.333 343 479.167 324 489.583 314.5L500 305V400H489.583C479.167 400 458.333 400 437.5 400C416.667 400 395.833 400 375 400C354.167 400 333.333 400 312.5 400C291.667 400 270.833 400 250 400C229.167 400 208.333 400 187.5 400C166.667 400 145.833 400 125 400C104.167 400 83.3333 400 62.5 400C41.6667 400 20.8333 400 10.4167 400H0V286Z" fill="url(#paint15_linear)"/>
<defs>
<linearGradient id="paint0_linear" x1="294.332" y1="-41.2945" x2="292.786" y2="216.14" gradientUnits="userSpaceOnUse">
<stop/>
<stop offset="0.97" stop-opacity="0.1"/>
</linearGradient>
<linearGradient id="paint1_linear" x1="269.826" y1="194.493" x2="346.715" y2="194.493" gradientUnits="userSpaceOnUse">
<stop stop-color="#ECC4D7"/>
<stop offset="0.42" stop-color="#EFD4D1"/>
<stop offset="1" stop-color="#F2EAC9"/>
</linearGradient>
<linearGradient id="paint2_linear" x1="7542.86" y1="4431.72" x2="8444.87" y2="4431.72" gradientUnits="userSpaceOnUse">
<stop stop-color="#ECC4D7"/>
<stop offset="0.42" stop-color="#EFD4D1"/>
<stop offset="1" stop-color="#F2EAC9"/>
</linearGradient>
<linearGradient id="paint3_linear" x1="8324.26" y1="5250.67" x2="9455.65" y2="5250.67" gradientUnits="userSpaceOnUse">
<stop stop-color="#ECC4D7"/>
<stop offset="0.42" stop-color="#EFD4D1"/>
<stop offset="1" stop-color="#F2EAC9"/>
</linearGradient>
<linearGradient id="paint4_linear" x1="6379.62" y1="7258.72" x2="7023.52" y2="7258.72" gradientUnits="userSpaceOnUse">
<stop stop-color="#ECC4D7"/>
<stop offset="0.42" stop-color="#EFD4D1"/>
<stop offset="1" stop-color="#F2EAC9"/>
</linearGradient>
<linearGradient id="paint5_linear" x1="6628.44" y1="6697.31" x2="7312.51" y2="6697.31" gradientUnits="userSpaceOnUse">
<stop stop-color="#ECC4D7"/>
<stop offset="0.42" stop-color="#EFD4D1"/>
<stop offset="1" stop-color="#F2EAC9"/>
</linearGradient>
<linearGradient id="paint6_linear" x1="2328.29" y1="3124.98" x2="2577.7" y2="3122.26" gradientUnits="userSpaceOnUse">
<stop/>
<stop offset="0.97" stop-opacity="0.1"/>
</linearGradient>
<linearGradient id="paint7_linear" x1="2954.54" y1="4019.33" x2="3277.8" y2="4014.64" gradientUnits="userSpaceOnUse">
<stop/>
<stop offset="0.97" stop-opacity="0.1"/>
</linearGradient>
<linearGradient id="paint8_linear" x1="2632.57" y1="5726.48" x2="2915.51" y2="5723.28" gradientUnits="userSpaceOnUse">
<stop/>
<stop offset="0.97" stop-opacity="0.1"/>
</linearGradient>
<linearGradient id="paint9_linear" x1="2148.48" y1="4973.62" x2="2372.39" y2="4970.77" gradientUnits="userSpaceOnUse">
<stop/>
<stop offset="0.97" stop-opacity="0.1"/>
</linearGradient>
<linearGradient id="paint10_linear" x1="210.228" y1="121.48" x2="230.547" y2="149.95" gradientUnits="userSpaceOnUse">
<stop stop-color="#183866"/>
<stop offset="1" stop-color="#1A7FC1"/>
</linearGradient>
<linearGradient id="paint11_linear" x1="15348.9" y1="316.146" x2="15352.7" y2="524.985" gradientUnits="userSpaceOnUse">
<stop stop-color="#183866"/>
<stop offset="1" stop-color="#1A7FC1"/>
</linearGradient>
<linearGradient id="paint12_linear" x1="15007.4" y1="335.07" x2="15011.3" y2="543.909" gradientUnits="userSpaceOnUse">
<stop stop-color="#183866"/>
<stop offset="1" stop-color="#1A7FC1"/>
</linearGradient>
<linearGradient id="paint13_linear" x1="14666" y1="353.986" x2="14669.8" y2="562.826" gradientUnits="userSpaceOnUse">
<stop stop-color="#183866"/>
<stop offset="1" stop-color="#1A7FC1"/>
</linearGradient>
<linearGradient id="paint14_linear" x1="1982.41" y1="5471.59" x2="1988.92" y2="5471.59" gradientUnits="userSpaceOnUse">
<stop stop-color="#183866"/>
<stop offset="1" stop-color="#1A7FC1"/>
</linearGradient>
<linearGradient id="paint15_linear" x1="44" y1="367.5" x2="478" y2="366" gradientUnits="userSpaceOnUse">
<stop offset="0.0328777" stop-color="#B538DF"/>
<stop offset="0.880029" stop-color="#5655C7"/>
</linearGradient>
<clipPath id="clip0">
<rect width="250" height="230" fill="white" transform="translate(132 32)"/>
</clipPath>
</defs>
</svg>
